<?xml version="1.0" encoding="UTF-8"?>
<svg xmlns="http://www.w3.org/2000/svg" xmlns:xlink="http://www.w3.org/1999/xlink" viewBox="0 0 16 16" width="16px" height="16px">
<g id="surface37087836">
<path style=" stroke:none;fill-rule:nonzero;fill:rgb(100%,100%,100%);fill-opacity:1;" d="M 12.5 1 C 11.125 1 10 2.125 10 3.5 C 10 3.980469 10.144531 4.425781 10.378906 4.808594 L 8.054688 7 L 5.949219 7 C 5.714844 5.863281 4.703125 5 3.5 5 C 2.125 5 1 6.125 1 7.5 C 1 8.875 2.125 10 3.5 10 C 4.703125 10 5.714844 9.136719 5.949219 8 L 8.054688 8 L 10.40625 10.148438 C 10.152344 10.539062 10 11 10 11.5 C 10 12.875 11.125 14 12.5 14 C 13.875 14 15 12.875 15 11.5 C 15 10.125 13.875 9 12.5 9 C 11.984375 9 11.5 9.15625 11.101562 9.429688 L 9 7.507812 L 9 7.476562 L 11.0625 5.539062 C 11.472656 5.824219 11.964844 6 12.5 6 C 13.875 6 15 4.875 15 3.5 C 15 2.125 13.875 1 12.5 1 Z M 12.5 2 C 13.335938 2 14 2.664062 14 3.5 C 14 4.335938 13.335938 5 12.5 5 C 11.664062 5 11 4.335938 11 3.5 C 11 2.664062 11.664062 2 12.5 2 Z M 3.5 6 C 4.335938 6 5 6.664062 5 7.5 C 5 8.335938 4.335938 9 3.5 9 C 2.664062 9 2 8.335938 2 7.5 C 2 6.664062 2.664062 6 3.5 6 Z M 12.5 10 C 13.335938 10 14 10.664062 14 11.5 C 14 12.335938 13.335938 13 12.5 13 C 11.664062 13 11 12.335938 11 11.5 C 11 10.664062 11.664062 10 12.5 10 Z M 12.5 10 "/>
</g>
</svg>
