<?xml version="1.0"?>
<svg xmlns="http://www.w3.org/2000/svg" xmlns:xlink="http://www.w3.org/1999/xlink" xmlns:svgjs="http://svgjs.com/svgjs" version="1.1" width="512" height="512" x="0" y="0" viewBox="0 0 512.007 512.007" style="enable-background:new 0 0 512 512" xml:space="preserve" class=""><g><g xmlns="http://www.w3.org/2000/svg" id="XMLID_1435_"><g id="XMLID_93_"><path id="XMLID_96_" d="m373.935 114.077c1.86-1.86 2.93-4.44 2.93-7.07s-1.069-5.21-2.93-7.07c-1.87-1.86-4.44-2.93-7.07-2.93s-5.21 1.07-7.08 2.93c-1.859 1.86-2.92 4.44-2.92 7.07s1.061 5.21 2.92 7.07c1.87 1.86 4.45 2.93 7.08 2.93 2.629 0 5.2-1.07 7.07-2.93z" fill="#ffffff" data-original="#000000" style="" class=""/><path id="XMLID_511_" d="m434.455 84.409-24.911-13.594c.303-8.627 2.979-16.898 7.787-24.017 4.484-6.641 6.115-14.631 4.59-22.498s-6.022-14.669-12.663-19.152c-6.644-4.485-14.635-6.115-22.499-4.591-7.867 1.525-14.669 6.023-19.151 12.663-5.07 7.508-9.137 15.64-12.123 24.152-.785-2.956-1.281-5.995-1.458-9.085-.459-8-4.007-15.343-9.989-20.675-5.983-5.332-13.69-8.023-21.682-7.555-8.001.46-15.344 4.007-20.676 9.989s-8.015 13.683-7.554 21.681c.971 16.921 6.03 33.364 14.67 47.907-9.759 23.899-14.72 49.099-14.72 74.947v54.426h-11.472c-5.522 0-10 4.477-10 10s4.478 10 10 10h21.472c5.522 0 10-4.477 10-10v-64.426c0-23.898 4.703-47.184 13.979-69.213 2.905-6.901 9.622-11.361 17.11-11.361h23.744c3.097 0 6.171.784 8.89 2.268l47.077 25.69c6.243 3.408 9.048 10.992 6.523 17.642l-5.19 13.669c-2.097 5.521-7.474 9.231-13.38 9.231h-31.226c-5.522 0-10 4.477-10 10s4.478 10 10 10h16v113c0 32.882-16.323 63.475-43.665 81.835-2.766 1.857-4.425 4.97-4.425 8.302v59.113c0 15.026-12.225 27.25-27.25 27.25s-27.25-12.224-27.25-27.25v-40.75c0-5.523-4.478-10-10-10h-49.702c-23.352 0-46.266-4.279-68.103-12.72-3.079-1.189-6.541-.785-9.26 1.08-2.72 1.864-4.346 4.95-4.346 8.247v54.142c0 15.026-12.225 27.25-27.25 27.25s-27.25-12.224-27.25-27.25v-102.25c0-51.556 41.944-93.5 93.5-93.5 5.522 0 10-4.477 10-10s-4.478-10-10-10c-25.132 0-48.378 8.217-67.205 22.097-4.717-13.028-17.21-22.363-31.845-22.363-18.669 0-33.857 15.188-33.857 33.857v23.857c0 5.523 4.477 10 10 10h19.182c-6.276 14.082-9.773 29.665-9.773 46.051v102.25c0 14.673 6.723 27.804 17.25 36.477v20.773c0 16.542 13.458 30 30 30 7.678 0 14.688-2.902 20-7.664 5.312 4.761 12.322 7.664 20 7.664 16.542 0 30-13.458 30-30v-20.773c10.527-8.673 17.25-21.804 17.25-36.477v-31.884c7.187.749 14.428 1.134 21.708 1.134h39.702v30.75c0 14.673 6.723 27.804 17.25 36.477v20.773c0 16.542 13.458 30 30 30 7.678 0 14.689-2.903 20-7.664 5.312 4.761 12.323 7.664 20 7.664 16.542 0 30-13.458 30-30v-20.773c10.527-8.673 17.25-21.804 17.25-36.477v-106.202c5.271-13.524 8.089-28.086 8.089-43.046v-113.353c12.217-1.743 22.85-10.048 27.303-21.779l5.19-13.669c6.054-15.944-.67-34.128-15.641-42.297zm-112.503-22.636c-4.547-9.78-7.237-20.366-7.859-31.195-.153-2.666.74-5.232 2.517-7.225 1.777-1.994 4.226-3.176 6.894-3.33 2.666-.155 5.233.741 7.228 2.518 1.993 1.777 3.176 4.224 3.329 6.89.499 8.699 2.715 17.12 6.482 24.876-6.847.821-13.236 3.429-18.591 7.466zm49.535-7.674c2.31-10.577 6.616-20.685 12.696-29.687 1.494-2.213 3.761-3.712 6.383-4.22 2.621-.508 5.284.035 7.5 1.531 2.214 1.494 3.713 3.761 4.221 6.384.509 2.622-.035 5.285-1.529 7.498-5.1 7.552-8.53 15.997-10.155 24.874l-3.224-1.759c-4.893-2.671-10.341-4.246-15.892-4.621zm-291.791 188.5c0-7.641 6.217-13.857 13.857-13.857s13.857 6.216 13.857 13.857-6.217 13.857-13.857 13.857h-13.857zm46.658 249.408c-5.514 0-10-4.486-10-10v-11.075c3.225.698 6.569 1.075 10 1.075s6.775-.377 10-1.075v11.075c0 5.514-4.487 10-10 10zm50-10c0 5.514-4.486 10-10 10s-10-4.486-10-10v-11.064c3.265.704 6.615 1.064 10 1.064 3.431 0 6.775-.377 10-1.075zm17.25-57.25c0 15.026-12.225 27.25-27.25 27.25-.469 0-.935-.026-1.401-.049 5.441-7.698 8.651-17.079 8.651-27.201v-40.082c6.594 2.044 13.266 3.748 20 5.123zm128.66 67.25c-5.514 0-10-4.486-10-10v-11.075c3.225.698 6.569 1.075 10 1.075s6.775-.377 10-1.075v11.075c0 5.514-4.486 10-10 10zm50.001-10c0 5.514-4.486 10-10 10s-10-4.486-10-10v-11.064c3.265.704 6.615 1.064 10 1.064 3.431 0 6.775-.377 10-1.075zm17.25-57.25c0 15.026-12.225 27.25-27.25 27.25-.469 0-.935-.026-1.402-.049 5.441-7.698 8.651-17.079 8.651-27.201v-53.93c7.445-5.503 14.137-11.794 20.001-18.709z" fill="#ffffff" data-original="#000000" style="" class=""/><path id="XMLID_520_" d="m237.605 229.047c2.63 0 5.21-1.07 7.07-2.93 1.859-1.86 2.93-4.43 2.93-7.07 0-2.63-1.07-5.21-2.93-7.07s-4.441-2.93-7.07-2.93c-2.63 0-5.21 1.07-7.07 2.93-1.859 1.86-2.93 4.44-2.93 7.07 0 2.64 1.07 5.21 2.93 7.07s4.44 2.93 7.07 2.93z" fill="#ffffff" data-original="#000000" style="" class=""/></g></g></g></svg>
